<mxfile host="app.diagrams.net" agent="Mozilla/5.0 (Windows NT 10.0; Win64; x64) AppleWebKit/537.36 (KHTML, like Gecko) Chrome/134.0.0.0 Safari/537.36" version="26.1.0">
  <diagram name="第 1 页" id="JpXi6xTGREB8CNgL34TI">
    <mxGraphModel dx="1185" dy="627" grid="1" gridSize="10" guides="1" tooltips="1" connect="1" arrows="1" fold="1" page="1" pageScale="1" pageWidth="827" pageHeight="1169" math="0" shadow="0">
      <root>
        <mxCell id="0" />
        <mxCell id="1" parent="0" />
        <mxCell id="MB2Knx53dKuNu1OESKoF-1" value="&lt;p class=&quot;MsoNormal&quot;&gt;&lt;span style=&quot;mso-spacerun:&#39;yes&#39;;font-family:仿宋_GB2312;font-size:14.0000pt;&lt;br/&gt;mso-font-kerning:1.0000pt;&quot;&gt;业务系统运维精益化管理系统&lt;/span&gt;&lt;/p&gt;" style="rounded=0;whiteSpace=wrap;html=1;verticalAlign=top;" parent="1" vertex="1">
          <mxGeometry x="120" y="280" width="620" height="375" as="geometry" />
        </mxCell>
        <mxCell id="MB2Knx53dKuNu1OESKoF-2" value="运维工作工单管理" style="rounded=0;whiteSpace=wrap;html=1;verticalAlign=top;" parent="1" vertex="1">
          <mxGeometry x="140" y="340" width="120" height="150" as="geometry" />
        </mxCell>
        <mxCell id="MB2Knx53dKuNu1OESKoF-3" value="运维一体化智能展示" style="rounded=0;whiteSpace=wrap;html=1;verticalAlign=top;" parent="1" vertex="1">
          <mxGeometry x="293" y="340" width="120" height="130" as="geometry" />
        </mxCell>
        <mxCell id="MB2Knx53dKuNu1OESKoF-4" value="运维佐证管理体系" style="rounded=0;whiteSpace=wrap;html=1;verticalAlign=top;" parent="1" vertex="1">
          <mxGeometry x="450" y="340" width="120" height="130" as="geometry" />
        </mxCell>
        <mxCell id="MB2Knx53dKuNu1OESKoF-5" value="运维配置管理" style="rounded=0;whiteSpace=wrap;html=1;verticalAlign=top;" parent="1" vertex="1">
          <mxGeometry x="600" y="340" width="120" height="160" as="geometry" />
        </mxCell>
        <mxCell id="MB2Knx53dKuNu1OESKoF-6" value="运维工作智能授权" style="rounded=0;whiteSpace=wrap;html=1;verticalAlign=top;" parent="1" vertex="1">
          <mxGeometry x="145" y="520" width="120" height="60" as="geometry" />
        </mxCell>
        <mxCell id="MB2Knx53dKuNu1OESKoF-7" value="我的待办" style="rounded=0;whiteSpace=wrap;html=1;verticalAlign=top;" parent="1" vertex="1">
          <mxGeometry x="294" y="520" width="120" height="60" as="geometry" />
        </mxCell>
        <mxCell id="MB2Knx53dKuNu1OESKoF-8" value="我的工作单" style="rounded=0;whiteSpace=wrap;html=1;verticalAlign=top;" parent="1" vertex="1">
          <mxGeometry x="600" y="520" width="120" height="60" as="geometry" />
        </mxCell>
        <mxCell id="MB2Knx53dKuNu1OESKoF-9" value="消息提醒" style="rounded=0;whiteSpace=wrap;html=1;verticalAlign=top;" parent="1" vertex="1">
          <mxGeometry x="455" y="520" width="120" height="60" as="geometry" />
        </mxCell>
        <mxCell id="6kliAmO4_DyFf_2dy3NH-1" value="运维工作申请" style="rounded=1;whiteSpace=wrap;html=1;fillColor=#B9E0A5;" vertex="1" parent="1">
          <mxGeometry x="145" y="380" width="110" height="20" as="geometry" />
        </mxCell>
        <mxCell id="6kliAmO4_DyFf_2dy3NH-2" value="综合查询" style="rounded=1;whiteSpace=wrap;html=1;fillColor=#B9E0A5;" vertex="1" parent="1">
          <mxGeometry x="145" y="430" width="110" height="20" as="geometry" />
        </mxCell>
        <mxCell id="6kliAmO4_DyFf_2dy3NH-3" value="运维工作审批" style="rounded=1;whiteSpace=wrap;html=1;fillColor=#B9E0A5;" vertex="1" parent="1">
          <mxGeometry x="145" y="405" width="110" height="20" as="geometry" />
        </mxCell>
        <mxCell id="6kliAmO4_DyFf_2dy3NH-4" value="统计分析" style="rounded=1;whiteSpace=wrap;html=1;fillColor=#B9E0A5;" vertex="1" parent="1">
          <mxGeometry x="145" y="457.5" width="110" height="20" as="geometry" />
        </mxCell>
        <mxCell id="6kliAmO4_DyFf_2dy3NH-6" value="检修后评估看板" style="rounded=1;whiteSpace=wrap;html=1;fillColor=#B9E0A5;" vertex="1" parent="1">
          <mxGeometry x="298" y="420" width="110" height="20" as="geometry" />
        </mxCell>
        <mxCell id="6kliAmO4_DyFf_2dy3NH-7" value="运维总览" style="rounded=1;whiteSpace=wrap;html=1;fillColor=#B9E0A5;" vertex="1" parent="1">
          <mxGeometry x="298" y="385" width="110" height="20" as="geometry" />
        </mxCell>
        <mxCell id="6kliAmO4_DyFf_2dy3NH-8" value="运维资料佐证管理功能" style="rounded=1;whiteSpace=wrap;html=1;fillColor=#B9E0A5;" vertex="1" parent="1">
          <mxGeometry x="455" y="392.5" width="110" height="45" as="geometry" />
        </mxCell>
        <mxCell id="6kliAmO4_DyFf_2dy3NH-9" value="运维系统管理" style="rounded=1;whiteSpace=wrap;html=1;fillColor=#B9E0A5;" vertex="1" parent="1">
          <mxGeometry x="605" y="377" width="110" height="20" as="geometry" />
        </mxCell>
        <mxCell id="6kliAmO4_DyFf_2dy3NH-10" value="运维人员管理" style="rounded=1;whiteSpace=wrap;html=1;fillColor=#B9E0A5;" vertex="1" parent="1">
          <mxGeometry x="605" y="407" width="110" height="20" as="geometry" />
        </mxCell>
        <mxCell id="6kliAmO4_DyFf_2dy3NH-11" value="问题分类管理" style="rounded=1;whiteSpace=wrap;html=1;fillColor=#B9E0A5;" vertex="1" parent="1">
          <mxGeometry x="605" y="437" width="110" height="20" as="geometry" />
        </mxCell>
        <mxCell id="6kliAmO4_DyFf_2dy3NH-12" value="检修信息维护" style="rounded=1;whiteSpace=wrap;html=1;fillColor=#B9E0A5;" vertex="1" parent="1">
          <mxGeometry x="605" y="467" width="110" height="20" as="geometry" />
        </mxCell>
        <mxCell id="6kliAmO4_DyFf_2dy3NH-13" value="脚本管理" style="rounded=1;whiteSpace=wrap;html=1;fillColor=#B9E0A5;" vertex="1" parent="1">
          <mxGeometry x="150" y="549" width="110" height="20" as="geometry" />
        </mxCell>
        <mxCell id="6kliAmO4_DyFf_2dy3NH-14" value="我的待办" style="rounded=1;whiteSpace=wrap;html=1;fillColor=#B9E0A5;" vertex="1" parent="1">
          <mxGeometry x="299" y="549" width="110" height="20" as="geometry" />
        </mxCell>
        <mxCell id="6kliAmO4_DyFf_2dy3NH-15" value="消息提醒" style="rounded=1;whiteSpace=wrap;html=1;fillColor=#B9E0A5;" vertex="1" parent="1">
          <mxGeometry x="460" y="549" width="110" height="20" as="geometry" />
        </mxCell>
        <mxCell id="6kliAmO4_DyFf_2dy3NH-16" value="我的工单" style="rounded=1;whiteSpace=wrap;html=1;fillColor=#B9E0A5;" vertex="1" parent="1">
          <mxGeometry x="605" y="549" width="110" height="20" as="geometry" />
        </mxCell>
      </root>
    </mxGraphModel>
  </diagram>
</mxfile>
